<svg width="20" height="20" viewBox="0 0 20 20" fill="none" xmlns="http://www.w3.org/2000/svg">
<path fill-rule="evenodd" clip-rule="evenodd" d="M19.3014 18.2401L14.6073 13.547C17.4337 10.1538 17.0912 5.13767 13.8299 2.16008C10.5686 -0.817504 5.54209 -0.703269 2.41942 2.4194C-0.703249 5.54207 -0.817485 10.5686 2.1601 13.8299C5.13769 17.0912 10.1538 17.4336 13.547 14.6073L18.2401 19.3014C18.5332 19.5944 19.0083 19.5944 19.3014 19.3014C19.5944 19.0083 19.5944 18.5332 19.3014 18.2401ZM1.52075 8.27073C1.52075 4.54281 4.54283 1.52073 8.27075 1.52073C11.9987 1.52073 15.0208 4.54281 15.0208 8.27073C15.0208 11.9987 11.9987 15.0207 8.27075 15.0207C4.54454 15.0166 1.52489 11.9969 1.52075 8.27073Z" fill="#61758A"/>
</svg>
